<?xml version="1.0" encoding="UTF-8"?>
<svg width="165.08mm" height="210.11mm" version="1.1" viewBox="0 0 165.08 210.11" xmlns="http://www.w3.org/2000/svg">
<g transform="translate(-23.754 -52.335)" fill="none" stroke="#000" stroke-width="6">
<path d="m33.18 259.45h149.54c-4.2877-5.5314-5.9579-12.023-17.642-14.842-5.9783-8.2268-12.533-15.769-22.683-19.042-7.3882-11-17.271-20.386-37.245-23.243-18.531-1.243-28.319 6.8598-36.124 17.082-7.7549 2.9142-15.158 6.8443-19.602 19.322-6.6779 4.4946-13.553 8.6132-16.242 20.723z"/>
<path d="m105.15 202.32c11.419-55.026 7.7542-105.07-57.906-134.66" stroke-linecap="round"/>
<path d="m110.01 149.24c-59.09 1.1298-76.131-40.227-82.895-91.968 80.338-10.924 101.45 24.879 82.895 91.968z"/>
<path d="m112.34 174.27c27.858 11.143 44.407 2.9662 52.479-19.693-32.983-7.5882-42.143 2.0285-52.479 19.693z"/>
<path d="m112.34 174.27c10.003-2.7859 20.111-4.7336 29.748-10.453" stroke-linecap="round" stroke-linejoin="round"/>
</g>
</svg>
